<mxfile host="app.diagrams.net" modified="2023-10-12T12:37:05.497Z" agent="Mozilla/5.0 (Windows NT 10.0; Win64; x64) AppleWebKit/537.36 (KHTML, like Gecko) Chrome/116.0.0.0 Safari/537.36 OPR/102.0.0.0 (Edition Yx GX)" etag="F-0mrrgXMY4KzBHw35Zr" version="22.0.4" type="github">
  <diagram name="Страница — 1" id="DkrI1OynBvJTvUIXgYp9">
    <mxGraphModel dx="841" dy="484" grid="1" gridSize="10" guides="1" tooltips="1" connect="1" arrows="1" fold="1" page="1" pageScale="1" pageWidth="1920" pageHeight="1200" math="0" shadow="0">
      <root>
        <mxCell id="0" />
        <mxCell id="1" parent="0" />
        <mxCell id="em_6hJJ-K19g97L2Z2Qf-5" value="создание конференции&amp;nbsp;" style="ellipse;whiteSpace=wrap;html=1;direction=east;" parent="1" vertex="1">
          <mxGeometry x="680" y="840" width="120" height="80" as="geometry" />
        </mxCell>
        <mxCell id="em_6hJJ-K19g97L2Z2Qf-6" value="манипулирование пользователями&amp;nbsp;" style="ellipse;whiteSpace=wrap;html=1;" parent="1" vertex="1">
          <mxGeometry x="280" y="840" width="120" height="80" as="geometry" />
        </mxCell>
        <mxCell id="em_6hJJ-K19g97L2Z2Qf-7" value="" style="endArrow=none;html=1;rounded=0;exitX=1;exitY=0.5;exitDx=0;exitDy=0;" parent="1" source="em_6hJJ-K19g97L2Z2Qf-6" target="em_6hJJ-K19g97L2Z2Qf-1" edge="1">
          <mxGeometry width="50" height="50" relative="1" as="geometry">
            <mxPoint x="280" y="905" as="sourcePoint" />
            <mxPoint x="330" y="855" as="targetPoint" />
          </mxGeometry>
        </mxCell>
        <mxCell id="em_6hJJ-K19g97L2Z2Qf-11" value="" style="endArrow=none;html=1;rounded=0;entryX=0;entryY=0.5;entryDx=0;entryDy=0;" parent="1" source="em_6hJJ-K19g97L2Z2Qf-1" target="em_6hJJ-K19g97L2Z2Qf-5" edge="1">
          <mxGeometry width="50" height="50" relative="1" as="geometry">
            <mxPoint x="440" y="880" as="sourcePoint" />
            <mxPoint x="510" y="860" as="targetPoint" />
          </mxGeometry>
        </mxCell>
        <mxCell id="em_6hJJ-K19g97L2Z2Qf-14" value="добавление/удаление&amp;nbsp; пользователей в конференцию" style="ellipse;whiteSpace=wrap;html=1;" parent="1" vertex="1">
          <mxGeometry x="40" y="960" width="120" height="80" as="geometry" />
        </mxCell>
        <mxCell id="em_6hJJ-K19g97L2Z2Qf-15" value="просмотр статуса ученого&amp;nbsp;" style="ellipse;whiteSpace=wrap;html=1;" parent="1" vertex="1">
          <mxGeometry x="40" y="840" width="120" height="80" as="geometry" />
        </mxCell>
        <mxCell id="em_6hJJ-K19g97L2Z2Qf-20" value="назначение темы для конференции&amp;nbsp;" style="ellipse;whiteSpace=wrap;html=1;" parent="1" vertex="1">
          <mxGeometry x="920" y="960" width="120" height="80" as="geometry" />
        </mxCell>
        <mxCell id="em_6hJJ-K19g97L2Z2Qf-21" value="" style="endArrow=none;html=1;rounded=0;entryX=0;entryY=0.5;entryDx=0;entryDy=0;" parent="1" target="em_6hJJ-K19g97L2Z2Qf-1" edge="1">
          <mxGeometry width="50" height="50" relative="1" as="geometry">
            <mxPoint x="440" y="880" as="sourcePoint" />
            <mxPoint x="680" y="880" as="targetPoint" />
          </mxGeometry>
        </mxCell>
        <mxCell id="em_6hJJ-K19g97L2Z2Qf-1" value="Админ&amp;nbsp;" style="shape=umlActor;verticalLabelPosition=bottom;verticalAlign=top;html=1;outlineConnect=0;" parent="1" vertex="1">
          <mxGeometry x="530" y="850" width="30" height="60" as="geometry" />
        </mxCell>
        <mxCell id="em_6hJJ-K19g97L2Z2Qf-27" value="" style="endArrow=classic;dashed=1;html=1;dashPattern=1 3;strokeWidth=2;rounded=0;startArrow=none;startFill=0;entryX=1;entryY=0.5;entryDx=0;entryDy=0;exitX=0;exitY=0.5;exitDx=0;exitDy=0;endFill=1;" parent="1" source="em_6hJJ-K19g97L2Z2Qf-6" target="em_6hJJ-K19g97L2Z2Qf-14" edge="1">
          <mxGeometry width="50" height="50" relative="1" as="geometry">
            <mxPoint x="590" y="680" as="sourcePoint" />
            <mxPoint x="200" y="910" as="targetPoint" />
          </mxGeometry>
        </mxCell>
        <mxCell id="em_6hJJ-K19g97L2Z2Qf-29" value="" style="endArrow=none;dashed=1;html=1;dashPattern=1 3;strokeWidth=2;rounded=0;entryX=0;entryY=0.5;entryDx=0;entryDy=0;exitX=1;exitY=0.5;exitDx=0;exitDy=0;startArrow=classic;startFill=1;" parent="1" source="em_6hJJ-K19g97L2Z2Qf-15" target="em_6hJJ-K19g97L2Z2Qf-6" edge="1">
          <mxGeometry width="50" height="50" relative="1" as="geometry">
            <mxPoint x="220" y="810" as="sourcePoint" />
            <mxPoint x="270" y="760" as="targetPoint" />
          </mxGeometry>
        </mxCell>
        <mxCell id="em_6hJJ-K19g97L2Z2Qf-31" value="руководитель&amp;nbsp;&lt;br&gt;" style="shape=umlActor;verticalLabelPosition=bottom;verticalAlign=top;html=1;outlineConnect=0;" parent="1" vertex="1">
          <mxGeometry x="530" y="610" width="30" height="60" as="geometry" />
        </mxCell>
        <mxCell id="em_6hJJ-K19g97L2Z2Qf-33" value="открытая/закрытая&amp;nbsp; конференция&amp;nbsp;" style="ellipse;whiteSpace=wrap;html=1;" parent="1" vertex="1">
          <mxGeometry x="920" y="840" width="120" height="80" as="geometry" />
        </mxCell>
        <mxCell id="em_6hJJ-K19g97L2Z2Qf-34" value="" style="endArrow=classic;dashed=1;html=1;dashPattern=1 3;strokeWidth=2;rounded=0;entryX=0;entryY=0.5;entryDx=0;entryDy=0;exitX=1;exitY=0.5;exitDx=0;exitDy=0;endFill=1;" parent="1" source="em_6hJJ-K19g97L2Z2Qf-5" target="em_6hJJ-K19g97L2Z2Qf-33" edge="1">
          <mxGeometry width="50" height="50" relative="1" as="geometry">
            <mxPoint x="840" y="905" as="sourcePoint" />
            <mxPoint x="890" y="855" as="targetPoint" />
          </mxGeometry>
        </mxCell>
        <mxCell id="em_6hJJ-K19g97L2Z2Qf-35" value="" style="endArrow=classic;dashed=1;html=1;dashPattern=1 3;strokeWidth=2;rounded=0;exitX=1;exitY=0.5;exitDx=0;exitDy=0;entryX=0;entryY=0.5;entryDx=0;entryDy=0;endFill=1;" parent="1" source="em_6hJJ-K19g97L2Z2Qf-5" target="em_6hJJ-K19g97L2Z2Qf-20" edge="1">
          <mxGeometry width="50" height="50" relative="1" as="geometry">
            <mxPoint x="830" y="990" as="sourcePoint" />
            <mxPoint x="910" y="1000" as="targetPoint" />
          </mxGeometry>
        </mxCell>
        <mxCell id="em_6hJJ-K19g97L2Z2Qf-36" value="назначить руководителя&amp;nbsp;" style="ellipse;whiteSpace=wrap;html=1;" parent="1" vertex="1">
          <mxGeometry x="40" y="720" width="120" height="80" as="geometry" />
        </mxCell>
        <mxCell id="em_6hJJ-K19g97L2Z2Qf-37" value="" style="endArrow=classic;dashed=1;html=1;dashPattern=1 3;strokeWidth=2;rounded=0;entryX=1;entryY=0.5;entryDx=0;entryDy=0;exitX=0;exitY=0.5;exitDx=0;exitDy=0;startArrow=none;startFill=0;endFill=1;" parent="1" source="em_6hJJ-K19g97L2Z2Qf-6" target="em_6hJJ-K19g97L2Z2Qf-36" edge="1">
          <mxGeometry width="50" height="50" relative="1" as="geometry">
            <mxPoint x="230" y="790" as="sourcePoint" />
            <mxPoint x="280" y="740" as="targetPoint" />
          </mxGeometry>
        </mxCell>
        <mxCell id="em_6hJJ-K19g97L2Z2Qf-38" value="время проведения" style="ellipse;whiteSpace=wrap;html=1;" parent="1" vertex="1">
          <mxGeometry x="680" y="1000" width="120" height="80" as="geometry" />
        </mxCell>
        <mxCell id="em_6hJJ-K19g97L2Z2Qf-39" value="" style="endArrow=none;dashed=1;html=1;dashPattern=1 3;strokeWidth=2;rounded=0;entryX=0.5;entryY=1;entryDx=0;entryDy=0;exitX=0.5;exitY=0;exitDx=0;exitDy=0;startArrow=classic;startFill=1;" parent="1" source="em_6hJJ-K19g97L2Z2Qf-38" target="em_6hJJ-K19g97L2Z2Qf-5" edge="1">
          <mxGeometry width="50" height="50" relative="1" as="geometry">
            <mxPoint x="710" y="990" as="sourcePoint" />
            <mxPoint x="760" y="940" as="targetPoint" />
          </mxGeometry>
        </mxCell>
        <mxCell id="em_6hJJ-K19g97L2Z2Qf-40" value="общение с пользователями&amp;nbsp;" style="ellipse;whiteSpace=wrap;html=1;" parent="1" vertex="1">
          <mxGeometry x="320" y="600" width="120" height="80" as="geometry" />
        </mxCell>
        <mxCell id="em_6hJJ-K19g97L2Z2Qf-41" value="" style="endArrow=none;html=1;rounded=0;entryX=0.5;entryY=0.5;entryDx=0;entryDy=0;entryPerimeter=0;exitX=1;exitY=0.5;exitDx=0;exitDy=0;startArrow=none;startFill=0;" parent="1" source="em_6hJJ-K19g97L2Z2Qf-40" target="em_6hJJ-K19g97L2Z2Qf-31" edge="1">
          <mxGeometry width="50" height="50" relative="1" as="geometry">
            <mxPoint x="460" y="650" as="sourcePoint" />
            <mxPoint x="510" y="600" as="targetPoint" />
          </mxGeometry>
        </mxCell>
        <mxCell id="o6amB9BxI6n2P7V6-VsB-2" value="" style="endArrow=classic;html=1;rounded=0;" edge="1" parent="1">
          <mxGeometry width="50" height="50" relative="1" as="geometry">
            <mxPoint x="544.5" y="840" as="sourcePoint" />
            <mxPoint x="544.5" y="670" as="targetPoint" />
          </mxGeometry>
        </mxCell>
        <mxCell id="o6amB9BxI6n2P7V6-VsB-3" value="создание постов в чате и информации" style="ellipse;whiteSpace=wrap;html=1;" vertex="1" parent="1">
          <mxGeometry x="320" y="720" width="120" height="80" as="geometry" />
        </mxCell>
        <mxCell id="o6amB9BxI6n2P7V6-VsB-4" value="" style="endArrow=none;html=1;rounded=0;exitX=1;exitY=0.5;exitDx=0;exitDy=0;entryX=0.5;entryY=0.5;entryDx=0;entryDy=0;entryPerimeter=0;endFill=0;startArrow=none;startFill=0;" edge="1" parent="1" source="o6amB9BxI6n2P7V6-VsB-3" target="em_6hJJ-K19g97L2Z2Qf-31">
          <mxGeometry width="50" height="50" relative="1" as="geometry">
            <mxPoint x="460" y="740" as="sourcePoint" />
            <mxPoint x="510" y="690" as="targetPoint" />
          </mxGeometry>
        </mxCell>
        <mxCell id="o6amB9BxI6n2P7V6-VsB-6" value="пользователь&amp;nbsp;" style="shape=umlActor;verticalLabelPosition=bottom;verticalAlign=top;html=1;outlineConnect=0;" vertex="1" parent="1">
          <mxGeometry x="965" y="690" width="30" height="60" as="geometry" />
        </mxCell>
        <mxCell id="o6amB9BxI6n2P7V6-VsB-9" value="" style="endArrow=classic;html=1;rounded=0;exitX=0.5;exitY=0;exitDx=0;exitDy=0;" edge="1" parent="1" source="em_6hJJ-K19g97L2Z2Qf-33">
          <mxGeometry width="50" height="50" relative="1" as="geometry">
            <mxPoint x="965" y="820" as="sourcePoint" />
            <mxPoint x="980" y="740" as="targetPoint" />
          </mxGeometry>
        </mxCell>
        <mxCell id="o6amB9BxI6n2P7V6-VsB-10" value="если открыта&amp;nbsp;&lt;br&gt;группа&amp;nbsp;&lt;br&gt;" style="edgeLabel;html=1;align=center;verticalAlign=middle;resizable=0;points=[];" vertex="1" connectable="0" parent="o6amB9BxI6n2P7V6-VsB-9">
          <mxGeometry x="-0.0355" y="-3" relative="1" as="geometry">
            <mxPoint x="-3" y="8" as="offset" />
          </mxGeometry>
        </mxCell>
        <mxCell id="o6amB9BxI6n2P7V6-VsB-11" value="смотреть и слушать&amp;nbsp;" style="ellipse;whiteSpace=wrap;html=1;" vertex="1" parent="1">
          <mxGeometry x="1120" y="680" width="120" height="80" as="geometry" />
        </mxCell>
        <mxCell id="o6amB9BxI6n2P7V6-VsB-12" value="" style="endArrow=classic;dashed=1;html=1;dashPattern=1 3;strokeWidth=2;rounded=0;entryX=0;entryY=0.5;entryDx=0;entryDy=0;exitX=0.5;exitY=0.5;exitDx=0;exitDy=0;exitPerimeter=0;endFill=1;" edge="1" parent="1" source="o6amB9BxI6n2P7V6-VsB-6" target="o6amB9BxI6n2P7V6-VsB-11">
          <mxGeometry width="50" height="50" relative="1" as="geometry">
            <mxPoint x="1050" y="740" as="sourcePoint" />
            <mxPoint x="1100" y="690" as="targetPoint" />
          </mxGeometry>
        </mxCell>
        <mxCell id="o6amB9BxI6n2P7V6-VsB-14" value="" style="endArrow=none;html=1;rounded=0;exitX=0.5;exitY=0.5;exitDx=0;exitDy=0;exitPerimeter=0;entryX=1;entryY=0.5;entryDx=0;entryDy=0;startArrow=none;startFill=0;endFill=0;" edge="1" parent="1" source="em_6hJJ-K19g97L2Z2Qf-1" target="o6amB9BxI6n2P7V6-VsB-3">
          <mxGeometry width="50" height="50" relative="1" as="geometry">
            <mxPoint x="440" y="830" as="sourcePoint" />
            <mxPoint x="490" y="780" as="targetPoint" />
          </mxGeometry>
        </mxCell>
        <mxCell id="o6amB9BxI6n2P7V6-VsB-17" value="ученый&amp;nbsp;&lt;br&gt;" style="shape=umlActor;verticalLabelPosition=bottom;verticalAlign=top;html=1;outlineConnect=0;" vertex="1" parent="1">
          <mxGeometry x="730" y="610" width="30" height="60" as="geometry" />
        </mxCell>
        <mxCell id="o6amB9BxI6n2P7V6-VsB-18" value="" style="endArrow=classic;html=1;rounded=0;entryX=0.5;entryY=0.5;entryDx=0;entryDy=0;entryPerimeter=0;" edge="1" parent="1" source="em_6hJJ-K19g97L2Z2Qf-31" target="o6amB9BxI6n2P7V6-VsB-17">
          <mxGeometry width="50" height="50" relative="1" as="geometry">
            <mxPoint x="620" y="665" as="sourcePoint" />
            <mxPoint x="670" y="615" as="targetPoint" />
          </mxGeometry>
        </mxCell>
        <mxCell id="o6amB9BxI6n2P7V6-VsB-21" value="обсуждение темы&amp;nbsp;" style="ellipse;whiteSpace=wrap;html=1;" vertex="1" parent="1">
          <mxGeometry x="685" y="720" width="120" height="80" as="geometry" />
        </mxCell>
        <mxCell id="o6amB9BxI6n2P7V6-VsB-22" value="" style="endArrow=none;html=1;rounded=0;exitX=0.5;exitY=0;exitDx=0;exitDy=0;" edge="1" parent="1" source="o6amB9BxI6n2P7V6-VsB-21">
          <mxGeometry width="50" height="50" relative="1" as="geometry">
            <mxPoint x="730" y="720" as="sourcePoint" />
            <mxPoint x="745" y="660" as="targetPoint" />
          </mxGeometry>
        </mxCell>
      </root>
    </mxGraphModel>
  </diagram>
</mxfile>
